solid CaseDesign3
facet normal 0.0 0.0 -1.0
  outer loop
    vertex 0.0 57.99999999999999 0.0
    vertex 3.9326169100303514 53.43686145167596 0.0
    vertex 0.0 0.0 0.0
  endloop
endfacet
facet normal 0.0 0.0 -1.0
  outer loop
    vertex 3.9326169100303514 53.43686145167596 0.0
    vertex 0.0 57.99999999999999 0.0
    vertex 125.0 57.99999999999999 0.0
  endloop
endfacet
facet normal 0.0 0.0 -1.0
  outer loop
    vertex 3.9326169100303514 53.43686145167596 0.0
    vertex 125.0 57.99999999999999 0.0
    vertex 119.12381624393244 53.43686145167596 0.0
  endloop
endfacet
facet normal 0.0 0.0 -1.0
  outer loop
    vertex 119.12381624393244 53.43686145167596 0.0
    vertex 125.0 57.99999999999999 0.0
    vertex 119.12381624393244 4.063250451675957 0.0
  endloop
endfacet
facet normal 0.0 0.0 -1.0
  outer loop
    vertex 0.0 0.0 0.0
    vertex 3.9326169100303514 4.063250451675957 0.0
    vertex 125.0 0.0 0.0
  endloop
endfacet
facet normal 0.0 0.0 -1.0
  outer loop
    vertex 3.9326169100303514 4.063250451675957 0.0
    vertex 0.0 0.0 0.0
    vertex 3.9326169100303514 53.43686145167596 0.0
  endloop
endfacet
facet normal 0.0 0.0 -1.0
  outer loop
    vertex 125.0 0.0 0.0
    vertex 3.9326169100303514 4.063250451675957 0.0
    vertex 119.12381624393244 4.063250451675957 0.0
  endloop
endfacet
facet normal 0.0 0.0 -1.0
  outer loop
    vertex 125.0 0.0 0.0
    vertex 119.12381624393244 4.063250451675957 0.0
    vertex 125.0 57.99999999999999 0.0
  endloop
endfacet
facet normal -1.0 0.0 0.0
  outer loop
    vertex 0.0 57.99999999999999 50.598098
    vertex 0.0 0.0 0.0
    vertex 0.0 0.0 50.598098
  endloop
endfacet
facet normal -1.0 0.0 0.0
  outer loop
    vertex 0.0 0.0 0.0
    vertex 0.0 57.99999999999999 50.598098
    vertex 0.0 57.99999999999999 0.0
  endloop
endfacet
facet normal 1.0 0.0 0.0
  outer loop
    vertex 125.0 57.99999999999999 0.0
    vertex 125.0 0.0 50.598098
    vertex 125.0 0.0 0.0
  endloop
endfacet
facet normal 1.0 0.0 0.0
  outer loop
    vertex 125.0 0.0 50.598098
    vertex 125.0 57.99999999999999 0.0
    vertex 125.0 57.99999999999999 50.598098
  endloop
endfacet
facet normal 1.2858196049060229e-05 9.249404642282111e-05 0.9999999956397592
  outer loop
    vertex 26.949415642614166 -1.3173571149647161e-15 77.69299899999999
    vertex 26.656861022441227 57.99999999999999 77.68295218980701
    vertex 26.656861022441227 -1.3168686379302208e-15 77.68295218980701
  endloop
endfacet
facet normal 1.2858196049060229e-05 9.249404642282111e-05 0.9999999956397592
  outer loop
    vertex 26.656861022441227 57.99999999999999 77.68295218980701
    vertex 26.949415642614166 -1.3173571149647161e-15 77.69299899999999
    vertex 98.02905675367877 57.999999999999986 77.68158667003816
  endloop
endfacet
facet normal 1.2858196049060229e-05 9.249404642282111e-05 0.9999999956397592
  outer loop
    vertex 98.02905675367877 57.999999999999986 77.68158667003816
    vertex 26.949415642614166 -1.3173571149647161e-15 77.69299899999999
    vertex 97.69596058791834 -1.3173571149647155e-15 77.69299899999999
  endloop
endfacet
facet normal 1.2858196049060229e-05 9.249404642282111e-05 0.9999999956397592
  outer loop
    vertex 98.02905675367877 57.999999999999986 77.68158667003816
    vertex 97.69596058791834 -1.3173571149647155e-15 77.69299899999999
    vertex 98.02905675367877 -1.316802246206438e-15 77.68158667003816
  endloop
endfacet
facet normal -0.733645598234687 4.9309750513222775e-05 0.6795322904464636
  outer loop
    vertex 24.026323453296246 57.99999999999999 76.53357239165106
    vertex 23.820194860408005 -1.250880145980627e-15 76.32572594021755
    vertex 24.026323453296246 -1.2609856636799202e-15 76.53357239165106
  endloop
endfacet
facet normal -0.733645598234687 4.9309750513222775e-05 0.6795322904464636
  outer loop
    vertex 23.820194860408005 -1.250880145980627e-15 76.32572594021755
    vertex 24.026323453296246 57.99999999999999 76.53357239165106
    vertex 20.597009954908522 15.358942768565234 72.83621661052291
  endloop
endfacet
facet normal -0.733645598234687 4.9309750513222775e-05 0.6795322904464636
  outer loop
    vertex 23.820194860408005 -1.250880145980627e-15 76.32572594021755
    vertex 20.597009954908522 15.358942768565234 72.83621661052291
    vertex 0.0 0.0 50.598098
  endloop
endfacet
facet normal -0.733645598234687 4.9309750513222775e-05 0.6795322904464636
  outer loop
    vertex 20.597009954908522 15.358942768565234 72.83621661052291
    vertex 24.026323453296246 57.99999999999999 76.53357239165106
    vertex 20.59882467752671 42.3589427075797 72.83621661052291
  endloop
endfacet
facet normal -0.733645598234687 4.9309750513222775e-05 0.6795322904464636
  outer loop
    vertex 20.59882467752671 42.3589427075797 72.83621661052291
    vertex 24.026323453296246 57.99999999999999 76.53357239165106
    vertex 2.251452876913827 42.36017587019696 53.027785413444605
  endloop
endfacet
facet normal -0.733645598234687 4.9309750513222775e-05 0.6795322904464636
  outer loop
    vertex 0.0 0.0 50.598098
    vertex 2.2496381542956385 15.36017593118249 53.027785413444605
    vertex 0.0 57.99999999999999 50.598098
  endloop
endfacet
facet normal -0.733645598234687 4.9309750513222775e-05 0.6795322904464636
  outer loop
    vertex 2.2496381542956385 15.36017593118249 53.027785413444605
    vertex 0.0 0.0 50.598098
    vertex 20.597009954908522 15.358942768565234 72.83621661052291
  endloop
endfacet
facet normal -0.733645598234687 4.9309750513222775e-05 0.6795322904464636
  outer loop
    vertex 0.0 57.99999999999999 50.598098
    vertex 2.2496381542956385 15.36017593118249 53.027785413444605
    vertex 2.251452876913827 42.36017587019696 53.027785413444605
  endloop
endfacet
facet normal -0.733645598234687 4.9309750513222775e-05 0.6795322904464636
  outer loop
    vertex 0.0 57.99999999999999 50.598098
    vertex 2.251452876913827 42.36017587019696 53.027785413444605
    vertex 24.026323453296246 57.99999999999999 76.53357239165106
  endloop
endfacet
facet normal 0.7323165679299234 5.598156623982456e-05 0.6809643464979663
  outer loop
    vertex 122.28932223400322 42.356562097419385 53.512136355538814
    vertex 103.94289406966732 42.35597743184157 73.24208764461687
    vertex 103.96334217740166 42.35586106161454 73.22009752384112
  endloop
endfacet
facet normal 0.7323165679299234 5.598156623982456e-05 0.6809643464979663
  outer loop
    vertex 125.0 0.0 50.598098
    vertex 122.29043558803109 15.357258356077685 53.51315869252488
    vertex 103.96493279442224 15.355861079920878 73.22060660642444
  endloop
endfacet
facet normal 0.7323165679299234 5.598156623982456e-05 0.6809643464979663
  outer loop
    vertex 122.29043558803109 15.357258356077685 53.51315869252488
    vertex 125.0 0.0 50.598098
    vertex 122.33099537260301 15.357383021969095 53.46954025273593
  endloop
endfacet
facet normal 0.7323165679299234 5.598156623982456e-05 0.6809643464979663
  outer loop
    vertex 122.33099537260301 15.357383021969095 53.46954025273593
    vertex 125.0 0.0 50.598098
    vertex 125.0 57.99999999999999 50.598098
  endloop
endfacet
facet normal 0.7323165679299234 5.598156623982456e-05 0.6809643464979663
  outer loop
    vertex 122.33099537260301 15.357383021969095 53.46954025273593
    vertex 125.0 57.99999999999999 50.598098
    vertex 122.32893137139062 42.357382943078335 53.46954025273593
  endloop
endfacet
facet normal 0.7323165679299234 5.598156623982456e-05 0.6809643464979663
  outer loop
    vertex 122.32893137139062 42.357382943078335 53.46954025273593
    vertex 125.0 57.99999999999999 50.598098
    vertex 101.02565198395136 57.999999999999986 76.37569549684886
  endloop
endfacet
facet normal 0.7323165679299234 5.598156623982456e-05 0.6809643464979663
  outer loop
    vertex 101.26078085206105 -1.2418248525577687e-15 76.13948010297936
    vertex 101.02565198395136 57.999999999999986 76.37569549684886
    vertex 101.02565198395136 -1.253309671409042e-15 76.37569549684886
  endloop
endfacet
facet normal 0.7323165679299234 5.598156623982456e-05 0.6809643464979663
  outer loop
    vertex 101.02565198395136 57.999999999999986 76.37569549684886
    vertex 101.26078085206105 -1.2418248525577687e-15 76.13948010297936
    vertex 103.94495807087971 15.355977510732332 73.24208764461687
  endloop
endfacet
facet normal 0.7323165679299234 5.598156623982456e-05 0.6809643464979663
  outer loop
    vertex 103.94495807087971 15.355977510732332 73.24208764461687
    vertex 101.26078085206105 -1.2418248525577687e-15 76.13948010297936
    vertex 125.0 0.0 50.598098
  endloop
endfacet
facet normal 0.7323165679299234 5.598156623982456e-05 0.6809643464979663
  outer loop
    vertex 103.94495807087971 15.355977510732332 73.24208764461687
    vertex 125.0 0.0 50.598098
    vertex 103.96493279442224 15.355861079920878 73.22060660642444
  endloop
endfacet
facet normal 0.7323165679299234 5.598156623982456e-05 0.6809643464979663
  outer loop
    vertex 101.02565198395136 57.999999999999986 76.37569549684886
    vertex 103.94495807087971 15.355977510732332 73.24208764461687
    vertex 103.94289406966732 42.35597743184157 73.24208764461687
  endloop
endfacet
facet normal 0.7323165679299234 5.598156623982456e-05 0.6809643464979663
  outer loop
    vertex 101.02565198395136 57.999999999999986 76.37569549684886
    vertex 103.94289406966732 42.35597743184157 73.24208764461687
    vertex 122.28932223400322 42.356562097419385 53.512136355538814
  endloop
endfacet
facet normal 0.7323165679299234 5.598156623982456e-05 0.6809643464979663
  outer loop
    vertex 101.02565198395136 57.999999999999986 76.37569549684886
    vertex 122.28932223400322 42.356562097419385 53.512136355538814
    vertex 122.32893137139062 42.357382943078335 53.46954025273593
  endloop
endfacet
facet normal -0.660054626251297 -0.0 0.7512176052012233
  outer loop
    vertex 24.2462251903562 -1.2703798405976008e-15 76.7267882559521
    vertex 24.026323453296246 57.99999999999999 76.53357239165106
    vertex 24.026323453296246 -1.2609856636799202e-15 76.53357239165106
  endloop
endfacet
facet normal -0.660054626251297 -0.0 0.7512176052012233
  outer loop
    vertex 24.026323453296246 57.99999999999999 76.53357239165106
    vertex 24.2462251903562 -1.2703798405976008e-15 76.7267882559521
    vertex 24.2462251903562 57.99999999999999 76.7267882559521
  endloop
endfacet
facet normal -0.6069642548587637 -3.863981922545108e-17 0.794729132046728
  outer loop
    vertex 24.478863929676496 -1.2790184128703758e-15 76.90446313078547
    vertex 24.2462251903562 57.99999999999999 76.7267882559521
    vertex 24.2462251903562 -1.2703798405976008e-15 76.7267882559521
  endloop
endfacet
facet normal -0.6069642548587637 -3.863981922545108e-17 0.794729132046728
  outer loop
    vertex 24.2462251903562 57.99999999999999 76.7267882559521
    vertex 24.478863929676496 -1.2790184128703758e-15 76.90446313078547
    vertex 24.478863929676496 57.99999999999999 76.90446313078547
  endloop
endfacet
facet normal -0.5510139647062624 -4.0573289858623946e-17 0.8344960219789463
  outer loop
    vertex 24.72314351462264 -1.2868606769235218e-15 77.06575984047952
    vertex 24.478863929676496 57.99999999999999 76.90446313078547
    vertex 24.478863929676496 -1.2790184128703758e-15 76.90446313078547
  endloop
endfacet
facet normal -0.5510139647062624 -4.0573289858623946e-17 0.8344960219789463
  outer loop
    vertex 24.478863929676496 57.99999999999999 76.90446313078547
    vertex 24.72314351462264 -1.2868606769235218e-15 77.06575984047952
    vertex 24.72314351462264 57.99999999999999 77.06575984047952
  endloop
endfacet
facet normal -0.49246738463711737 -4.231558562129993e-17 0.8703308997551896
  outer loop
    vertex 24.977912938752223 -1.2938696812596378e-15 77.2099183806645
    vertex 24.72314351462264 57.99999999999999 77.06575984047952
    vertex 24.72314351462264 -1.2868606769235218e-15 77.06575984047952
  endloop
endfacet
facet normal -0.49246738463711737 -4.231558562129993e-17 0.8703308997551896
  outer loop
    vertex 24.72314351462264 57.99999999999999 77.06575984047952
    vertex 24.977912938752223 -1.2938696812596378e-15 77.2099183806645
    vertex 24.977912938752223 57.99999999999999 77.2099183806645
  endloop
endfacet
facet normal -0.43160037679864205 -4.3858497093735394e-17 0.9020649171469148
  outer loop
    vertex 25.241971769173684 -1.3000124005682068e-15 77.33625949929196
    vertex 24.977912938752223 57.99999999999999 77.2099183806645
    vertex 24.977912938752223 -1.2938696812596378e-15 77.2099183806645
  endloop
endfacet
facet normal -0.43160037679864205 -4.3858497093735394e-17 0.9020649171469148
  outer loop
    vertex 24.977912938752223 57.99999999999999 77.2099183806645
    vertex 25.241971769173684 -1.3000124005682068e-15 77.33625949929196
    vertex 25.241971769173684 57.99999999999999 77.33625949929196
  endloop
endfacet
facet normal -0.3686997368236572 -4.5194754323162454e-17 0.9295485485256625
  outer loop
    vertex 25.51407580279467 -1.3052598913355922e-15 77.4441878971619
    vertex 25.241971769173684 57.99999999999999 77.33625949929196
    vertex 25.241971769173684 -1.3000124005682068e-15 77.33625949929196
  endloop
endfacet
facet normal -0.3686997368236572 -4.5194754323162454e-17 0.9295485485256625
  outer loop
    vertex 25.241971769173684 57.99999999999999 77.33625949929196
    vertex 25.51407580279467 -1.3052598913355922e-15 77.4441878971619
    vertex 25.51407580279467 57.99999999999999 77.4441878971619
  endloop
endfacet
facet normal -0.3040618424952437 -4.631806107864549e-17 0.952652295403941
  outer loop
    vertex 25.792942928808532 -1.309587428222257e-15 77.53319503287784
    vertex 25.51407580279467 57.99999999999999 77.4441878971619
    vertex 25.51407580279467 -1.3052598913355922e-15 77.4441878971619
  endloop
endfacet
facet normal -0.3040618424952437 -4.631806107864549e-17 0.952652295403941
  outer loop
    vertex 25.51407580279467 57.99999999999999 77.4441878971619
    vertex 25.792942928808532 -1.309587428222257e-15 77.53319503287784
    vertex 25.792942928808532 57.99999999999999 77.53319503287784
  endloop
endfacet
facet normal -0.23799125726189213 -4.7223124517917004e-17 0.9712672966114446
  outer loop
    vertex 26.07725916979595 -1.3129746205646198e-15 77.60286151901265
    vertex 25.792942928808532 57.99999999999999 77.53319503287784
    vertex 25.792942928808532 -1.309587428222257e-15 77.53319503287784
  endloop
endfacet
facet normal -0.23799125726189213 -4.7223124517917004e-17 0.9712672966114446
  outer loop
    vertex 25.792942928808532 57.99999999999999 77.53319503287784
    vertex 26.07725916979595 -1.3129746205646198e-15 77.60286151901265
    vertex 26.07725916979595 57.99999999999999 77.60286151901265
  endloop
endfacet
facet normal -0.17079929518326242 -4.7905680126404785e-17 0.9853058412314936
  outer loop
    vertex 26.365684872976967 -1.3154055084526105e-15 77.65285909819526
    vertex 26.07725916979595 57.99999999999999 77.60286151901265
    vertex 26.07725916979595 -1.3129746205646198e-15 77.60286151901265
  endloop
endfacet
facet normal -0.17079929518326242 -4.7905680126404785e-17 0.9853058412314936
  outer loop
    vertex 26.07725916979595 57.99999999999999 77.60286151901265
    vertex 26.365684872976967 -1.3154055084526105e-15 77.65285909819526
    vertex 26.365684872976967 57.99999999999999 77.65285909819526
  endloop
endfacet
facet normal 0.658788570177316 -0.0 0.7523281330667675
  outer loop
    vertex 101.02565198395136 -1.253309671409042e-15 76.37569549684886
    vertex 100.77490732965866 57.999999999999986 76.59526419968034
    vertex 100.77490732965866 -1.2639851262814777e-15 76.59526419968034
  endloop
endfacet
facet normal 0.658788570177316 -0.0 0.7523281330667675
  outer loop
    vertex 100.77490732965866 57.999999999999986 76.59526419968034
    vertex 101.02565198395136 -1.253309671409042e-15 76.37569549684886
    vertex 101.02565198395136 57.999999999999986 76.37569549684886
  endloop
endfacet
facet normal 0.1704041988140678 -4.79090060811262e-17 0.9853742482054906
  outer loop
    vertex 98.6890077141658 -1.3123788974764579e-15 77.59060891270431
    vertex 98.36059074508604 57.999999999999986 77.64740320238145
    vertex 98.36059074508604 -1.3151402421883485e-15 77.64740320238145
  endloop
endfacet
facet normal 0.1704041988140678 -4.79090060811262e-17 0.9853742482054906
  outer loop
    vertex 98.36059074508604 57.999999999999986 77.64740320238145
    vertex 98.6890077141658 -1.3123788974764579e-15 77.59060891270431
    vertex 98.6890077141658 57.999999999999986 77.59060891270431
  endloop
endfacet
facet normal 0.23744598482299425 -4.722961271602612e-17 0.9714007434068798
  outer loop
    vertex 99.01276743134179 -1.3085311623906218e-15 77.51147015826888
    vertex 98.6890077141658 57.999999999999986 77.59060891270431
    vertex 98.6890077141658 -1.3123788974764579e-15 77.59060891270431
  endloop
endfacet
facet normal 0.23744598482299425 -4.722961271602612e-17 0.9714007434068798
  outer loop
    vertex 98.6890077141658 57.999999999999986 77.59060891270431
    vertex 99.01276743134179 -1.3085311623906218e-15 77.51147015826888
    vertex 99.01276743134179 57.999999999999986 77.51147015826888
  endloop
endfacet
facet normal 0.3033741824274952 -4.632871908379621e-17 0.9528715052075222
  outer loop
    vertex 99.33035150889671 -1.3036150822693544e-15 77.41035808874673
    vertex 99.01276743134179 57.999999999999986 77.51147015826888
    vertex 99.01276743134179 -1.3085311623906218e-15 77.51147015826888
  endloop
endfacet
facet normal 0.3033741824274952 -4.632871908379621e-17 0.9528715052075222
  outer loop
    vertex 99.01276743134179 57.999999999999986 77.51147015826888
    vertex 99.33035150889671 -1.3036150822693544e-15 77.41035808874673
    vertex 99.33035150889671 57.999999999999986 77.41035808874673
  endloop
endfacet
facet normal 0.36787959761683875 -4.521055024936316e-17 0.9298734331387648
  outer loop
    vertex 99.64027052199795 -1.2976537128397188e-15 77.28774690557889
    vertex 99.33035150889671 57.999999999999986 77.41035808874673
    vertex 99.33035150889671 -1.3036150822693544e-15 77.41035808874673
  endloop
endfacet
facet normal 0.36787959761683875 -4.521055024936316e-17 0.9298734331387648
  outer loop
    vertex 99.33035150889671 57.999999999999986 77.41035808874673
    vertex 99.64027052199795 -1.2976537128397188e-15 77.28774690557889
    vertex 99.64027052199795 57.999999999999986 77.28774690557889
  endloop
endfacet
facet normal 0.43065970903047085 -4.388035026791408e-17 0.9025143849367667
  outer loop
    vertex 99.94107099389134 -1.2906750120891977e-15 77.14421163803752
    vertex 99.64027052199795 57.999999999999986 77.28774690557889
    vertex 99.64027052199795 -1.2976537128397188e-15 77.28774690557889
  endloop
endfacet
facet normal 0.43065970903047085 -4.388035026791408e-17 0.9025143849367667
  outer loop
    vertex 99.64027052199795 57.999999999999986 77.28774690557889
    vertex 99.94107099389134 -1.2906750120891977e-15 77.14421163803752
    vertex 99.94107099389134 57.999999999999986 77.14421163803752
  endloop
endfacet
facet normal 0.4914200867408688 -4.234435759101144e-17 0.8709226707048089
  outer loop
    vertex 100.23134221250358 -1.2827117091466485e-15 76.98042544641919
    vertex 99.94107099389134 57.999999999999986 77.14421163803752
    vertex 99.94107099389134 -1.2906750120891977e-15 77.14421163803752
  endloop
endfacet
facet normal 0.4914200867408688 -4.234435759101144e-17 0.8709226707048089
  outer loop
    vertex 99.94107099389134 57.999999999999986 77.14421163803752
    vertex 100.23134221250358 -1.2827117091466485e-15 76.98042544641919
    vertex 100.23134221250358 57.999999999999986 76.98042544641919
  endloop
endfacet
facet normal 0.5498757730886831 -4.06097758091279e-17 0.8352464511568567
  outer loop
    vertex 100.50972284648414 -1.2738011507872738e-15 76.7971564650174
    vertex 100.23134221250358 57.999999999999986 76.98042544641919
    vertex 100.23134221250358 -1.2827117091466485e-15 76.98042544641919
  endloop
endfacet
facet normal 0.5498757730886831 -4.06097758091279e-17 0.8352464511568567
  outer loop
    vertex 100.23134221250358 57.999999999999986 76.98042544641919
    vertex 100.50972284648414 -1.2738011507872738e-15 76.7971564650174
    vertex 100.50972284648414 57.999999999999986 76.7971564650174
  endloop
endfacet
facet normal 0.6057526190940946 -3.868473986782005e-17 0.7956530427646492
  outer loop
    vertex 100.77490732965866 -1.2639851262814777e-15 76.59526419968034
    vertex 100.50972284648414 57.999999999999986 76.7971564650174
    vertex 100.50972284648414 -1.2738011507872738e-15 76.7971564650174
  endloop
endfacet
facet normal 0.6057526190940946 -3.868473986782005e-17 0.7956530427646492
  outer loop
    vertex 100.50972284648414 57.999999999999986 76.7971564650174
    vertex 100.77490732965866 -1.2639851262814777e-15 76.59526419968034
    vertex 100.77490732965866 57.999999999999986 76.59526419968034
  endloop
endfacet
facet normal 4.149956889972134e-05 2.7212174916660253e-06 -0.9999999991351904
  outer loop
    vertex 100.90344327640251 53.43686145167596 70.39090199999998
    vertex 23.66545827640251 4.063250451675957 70.39090199999998
    vertex 23.66545827640251 53.43686145167596 70.39090199999998
  endloop
endfacet
facet normal 4.149956889972134e-05 2.7212174916660253e-06 -0.9999999991351904
  outer loop
    vertex 23.66545827640251 4.063250451675957 70.39090199999998
    vertex 100.90344327640251 53.43686145167596 70.39090199999998
    vertex 100.8972421213274 42.35574413448884 70.3975707905544
  endloop
endfacet
facet normal 4.149956889972134e-05 2.7212174916660253e-06 -0.9999999991351904
  outer loop
    vertex 23.66545827640251 4.063250451675957 70.39090199999998
    vertex 100.8977206728493 15.355744128763329 70.39705615097023
    vertex 100.90344327640251 4.063250451675957 70.39090199999998
  endloop
endfacet
facet normal 4.149956889972134e-05 2.7212174916660253e-06 -0.9999999991351904
  outer loop
    vertex 100.8977206728493 15.355744128763329 70.39705615097023
    vertex 23.66545827640251 4.063250451675957 70.39090199999998
    vertex 100.8972421213274 42.35574413448884 70.3975707905544
  endloop
endfacet
facet normal 0.9994200949016123 -0.0 0.03405104854262697
  outer loop
    vertex 3.9326169100303514 53.43686145167596 0.0
    vertex 2.2086989100303525 4.063250451675957 50.598098
    vertex 3.9326169100303514 4.063250451675957 0.0
  endloop
endfacet
facet normal 0.9994200949016123 -0.0 0.03405104854262697
  outer loop
    vertex 2.2086989100303525 4.063250451675957 50.598098
    vertex 3.9326169100303514 53.43686145167596 0.0
    vertex 2.2086989100303525 53.43686145167596 50.598098
  endloop
endfacet
facet normal -0.9999999999999927 8.543579274432603e-08 8.668622529295604e-08
  outer loop
    vertex 119.12381624393244 15.357137829993667 50.598098
    vertex 119.12381624393244 4.063250451675957 0.0
    vertex 119.12381624393244 4.063250451675957 50.598098
  endloop
endfacet
facet normal -0.9999999999999927 8.543579274432603e-08 8.668622529295604e-08
  outer loop
    vertex 119.12381624393244 4.063250451675957 0.0
    vertex 119.12381624393244 15.357137829993667 50.598098
    vertex 119.12381624393244 53.43686145167596 0.0
  endloop
endfacet
facet normal -0.9999999999999927 8.543579274432603e-08 8.668622529295604e-08
  outer loop
    vertex 119.12381624393244 53.43686145167596 0.0
    vertex 119.12381624393244 15.357137829993667 50.598098
    vertex 119.1238323427953 42.35574531852728 50.598115342039236
  endloop
endfacet
facet normal -0.9999999999999927 8.543579274432603e-08 8.668622529295604e-08
  outer loop
    vertex 119.12381624393244 53.43686145167596 0.0
    vertex 119.1238323427953 42.35574531852728 50.598115342039236
    vertex 119.12381624393244 53.43686145167596 50.598098
  endloop
endfacet
facet normal 4.59911508274063e-19 -1.0 -1.9201484942890286e-17
  outer loop
    vertex 125.0 0.0 50.598098
    vertex 0.0 0.0 0.0
    vertex 125.0 0.0 0.0
  endloop
endfacet
facet normal 4.59911508274063e-19 -1.0 -1.9201484942890286e-17
  outer loop
    vertex 0.0 0.0 0.0
    vertex 125.0 0.0 50.598098
    vertex 0.0 0.0 50.598098
  endloop
endfacet
facet normal 4.59911508274063e-19 -1.0 -1.9201484942890286e-17
  outer loop
    vertex 0.0 0.0 50.598098
    vertex 125.0 0.0 50.598098
    vertex 101.26078085206105 -1.2418248525577687e-15 76.13948010297936
  endloop
endfacet
facet normal 4.59911508274063e-19 -1.0 -1.9201484942890286e-17
  outer loop
    vertex 0.0 0.0 50.598098
    vertex 101.26078085206105 -1.2418248525577687e-15 76.13948010297936
    vertex 23.820194860408005 -1.250880145980627e-15 76.32572594021755
  endloop
endfacet
facet normal 4.59911508274063e-19 -1.0 -1.9201484942890286e-17
  outer loop
    vertex 23.820194860408005 -1.250880145980627e-15 76.32572594021755
    vertex 101.26078085206105 -1.2418248525577687e-15 76.13948010297936
    vertex 101.02565198395136 -1.253309671409042e-15 76.37569549684886
  endloop
endfacet
facet normal 4.59911508274063e-19 -1.0 -1.9201484942890286e-17
  outer loop
    vertex 23.820194860408005 -1.250880145980627e-15 76.32572594021755
    vertex 101.02565198395136 -1.253309671409042e-15 76.37569549684886
    vertex 24.026323453296246 -1.2609856636799202e-15 76.53357239165106
  endloop
endfacet
facet normal 4.59911508274063e-19 -1.0 -1.9201484942890286e-17
  outer loop
    vertex 24.026323453296246 -1.2609856636799202e-15 76.53357239165106
    vertex 101.02565198395136 -1.253309671409042e-15 76.37569549684886
    vertex 100.77490732965866 -1.2639851262814777e-15 76.59526419968034
  endloop
endfacet
facet normal 4.59911508274063e-19 -1.0 -1.9201484942890286e-17
  outer loop
    vertex 24.026323453296246 -1.2609856636799202e-15 76.53357239165106
    vertex 100.77490732965866 -1.2639851262814777e-15 76.59526419968034
    vertex 24.2462251903562 -1.2703798405976008e-15 76.7267882559521
  endloop
endfacet
facet normal 4.59911508274063e-19 -1.0 -1.9201484942890286e-17
  outer loop
    vertex 24.2462251903562 -1.2703798405976008e-15 76.7267882559521
    vertex 100.77490732965866 -1.2639851262814777e-15 76.59526419968034
    vertex 100.50972284648414 -1.2738011507872738e-15 76.7971564650174
  endloop
endfacet
facet normal 4.59911508274063e-19 -1.0 -1.9201484942890286e-17
  outer loop
    vertex 24.2462251903562 -1.2703798405976008e-15 76.7267882559521
    vertex 100.50972284648414 -1.2738011507872738e-15 76.7971564650174
    vertex 24.478863929676496 -1.2790184128703758e-15 76.90446313078547
  endloop
endfacet
facet normal 4.59911508274063e-19 -1.0 -1.9201484942890286e-17
  outer loop
    vertex 24.478863929676496 -1.2790184128703758e-15 76.90446313078547
    vertex 100.50972284648414 -1.2738011507872738e-15 76.7971564650174
    vertex 100.23134221250358 -1.2827117091466485e-15 76.98042544641919
  endloop
endfacet
facet normal 4.59911508274063e-19 -1.0 -1.9201484942890286e-17
  outer loop
    vertex 24.478863929676496 -1.2790184128703758e-15 76.90446313078547
    vertex 100.23134221250358 -1.2827117091466485e-15 76.98042544641919
    vertex 24.72314351462264 -1.2868606769235218e-15 77.06575984047952
  endloop
endfacet
facet normal 4.59911508274063e-19 -1.0 -1.9201484942890286e-17
  outer loop
    vertex 24.72314351462264 -1.2868606769235218e-15 77.06575984047952
    vertex 100.23134221250358 -1.2827117091466485e-15 76.98042544641919
    vertex 99.94107099389134 -1.2906750120891977e-15 77.14421163803752
  endloop
endfacet
facet normal 4.59911508274063e-19 -1.0 -1.9201484942890286e-17
  outer loop
    vertex 24.72314351462264 -1.2868606769235218e-15 77.06575984047952
    vertex 99.94107099389134 -1.2906750120891977e-15 77.14421163803752
    vertex 24.977912938752223 -1.2938696812596378e-15 77.2099183806645
  endloop
endfacet
facet normal 4.59911508274063e-19 -1.0 -1.9201484942890286e-17
  outer loop
    vertex 24.977912938752223 -1.2938696812596378e-15 77.2099183806645
    vertex 99.94107099389134 -1.2906750120891977e-15 77.14421163803752
    vertex 99.64027052199795 -1.2976537128397188e-15 77.28774690557889
  endloop
endfacet
facet normal 4.59911508274063e-19 -1.0 -1.9201484942890286e-17
  outer loop
    vertex 24.977912938752223 -1.2938696812596378e-15 77.2099183806645
    vertex 99.64027052199795 -1.2976537128397188e-15 77.28774690557889
    vertex 25.241971769173684 -1.3000124005682068e-15 77.33625949929196
  endloop
endfacet
facet normal 4.59911508274063e-19 -1.0 -1.9201484942890286e-17
  outer loop
    vertex 25.241971769173684 -1.3000124005682068e-15 77.33625949929196
    vertex 99.64027052199795 -1.2976537128397188e-15 77.28774690557889
    vertex 99.33035150889671 -1.3036150822693544e-15 77.41035808874673
  endloop
endfacet
facet normal 4.59911508274063e-19 -1.0 -1.9201484942890286e-17
  outer loop
    vertex 25.241971769173684 -1.3000124005682068e-15 77.33625949929196
    vertex 99.33035150889671 -1.3036150822693544e-15 77.41035808874673
    vertex 25.51407580279467 -1.3052598913355922e-15 77.4441878971619
  endloop
endfacet
facet normal 4.59911508274063e-19 -1.0 -1.9201484942890286e-17
  outer loop
    vertex 25.51407580279467 -1.3052598913355922e-15 77.4441878971619
    vertex 99.33035150889671 -1.3036150822693544e-15 77.41035808874673
    vertex 99.01276743134179 -1.3085311623906218e-15 77.51147015826888
  endloop
endfacet
facet normal 4.59911508274063e-19 -1.0 -1.9201484942890286e-17
  outer loop
    vertex 25.51407580279467 -1.3052598913355922e-15 77.4441878971619
    vertex 99.01276743134179 -1.3085311623906218e-15 77.51147015826888
    vertex 25.792942928808532 -1.309587428222257e-15 77.53319503287784
  endloop
endfacet
facet normal 4.59911508274063e-19 -1.0 -1.9201484942890286e-17
  outer loop
    vertex 25.792942928808532 -1.309587428222257e-15 77.53319503287784
    vertex 99.01276743134179 -1.3085311623906218e-15 77.51147015826888
    vertex 98.6890077141658 -1.3123788974764579e-15 77.59060891270431
  endloop
endfacet
facet normal 4.59911508274063e-19 -1.0 -1.9201484942890286e-17
  outer loop
    vertex 25.792942928808532 -1.309587428222257e-15 77.53319503287784
    vertex 98.6890077141658 -1.3123788974764579e-15 77.59060891270431
    vertex 26.07725916979595 -1.3129746205646198e-15 77.60286151901265
  endloop
endfacet
facet normal 4.59911508274063e-19 -1.0 -1.9201484942890286e-17
  outer loop
    vertex 26.07725916979595 -1.3129746205646198e-15 77.60286151901265
    vertex 98.6890077141658 -1.3123788974764579e-15 77.59060891270431
    vertex 98.36059074508604 -1.3151402421883485e-15 77.64740320238145
  endloop
endfacet
facet normal 4.59911508274063e-19 -1.0 -1.9201484942890286e-17
  outer loop
    vertex 26.07725916979595 -1.3129746205646198e-15 77.60286151901265
    vertex 98.36059074508604 -1.3151402421883485e-15 77.64740320238145
    vertex 26.365684872976967 -1.3154055084526105e-15 77.65285909819526
  endloop
endfacet
facet normal 4.59911508274063e-19 -1.0 -1.9201484942890286e-17
  outer loop
    vertex 26.365684872976967 -1.3154055084526105e-15 77.65285909819526
    vertex 98.36059074508604 -1.3151402421883485e-15 77.64740320238145
    vertex 98.02905675367877 -1.316802246206438e-15 77.68158667003816
  endloop
endfacet
facet normal 4.59911508274063e-19 -1.0 -1.9201484942890286e-17
  outer loop
    vertex 26.365684872976967 -1.3154055084526105e-15 77.65285909819526
    vertex 98.02905675367877 -1.316802246206438e-15 77.68158667003816
    vertex 26.656861022441227 -1.3168686379302208e-15 77.68295218980701
  endloop
endfacet
facet normal 4.59911508274063e-19 -1.0 -1.9201484942890286e-17
  outer loop
    vertex 26.656861022441227 -1.3168686379302208e-15 77.68295218980701
    vertex 98.02905675367877 -1.316802246206438e-15 77.68158667003816
    vertex 97.69596058791834 -1.3173571149647155e-15 77.69299899999999
  endloop
endfacet
facet normal 4.59911508274063e-19 -1.0 -1.9201484942890286e-17
  outer loop
    vertex 26.656861022441227 -1.3168686379302208e-15 77.68295218980701
    vertex 97.69596058791834 -1.3173571149647155e-15 77.69299899999999
    vertex 26.949415642614166 -1.3173571149647161e-15 77.69299899999999
  endloop
endfacet
facet normal -0.0 1.0 -0.0
  outer loop
    vertex 2.2086989100303525 4.063250451675957 50.598098
    vertex 119.12381624393244 4.063250451675957 0.0
    vertex 3.9326169100303514 4.063250451675957 0.0
  endloop
endfacet
facet normal -0.0 1.0 -0.0
  outer loop
    vertex 119.12381624393244 4.063250451675957 0.0
    vertex 2.2086989100303525 4.063250451675957 50.598098
    vertex 119.12381624393244 4.063250451675957 50.598098
  endloop
endfacet
facet normal -0.0 1.0 -0.0
  outer loop
    vertex 119.12381624393244 4.063250451675957 50.598098
    vertex 2.2086989100303525 4.063250451675957 50.598098
    vertex 23.66545827640251 4.063250451675957 70.39090199999998
  endloop
endfacet
facet normal -0.0 1.0 -0.0
  outer loop
    vertex 119.12381624393244 4.063250451675957 50.598098
    vertex 23.66545827640251 4.063250451675957 70.39090199999998
    vertex 100.90344327640251 4.063250451675957 70.39090199999998
  endloop
endfacet
facet normal 0.0 -1.0 0.0
  outer loop
    vertex 119.12381624393244 53.43686145167596 50.598098
    vertex 3.9326169100303514 53.43686145167596 0.0
    vertex 119.12381624393244 53.43686145167596 0.0
  endloop
endfacet
facet normal 0.0 -1.0 0.0
  outer loop
    vertex 3.9326169100303514 53.43686145167596 0.0
    vertex 119.12381624393244 53.43686145167596 50.598098
    vertex 2.2086989100303525 53.43686145167596 50.598098
  endloop
endfacet
facet normal 0.0 -1.0 0.0
  outer loop
    vertex 2.2086989100303525 53.43686145167596 50.598098
    vertex 119.12381624393244 53.43686145167596 50.598098
    vertex 100.90344327640251 53.43686145167596 70.39090199999998
  endloop
endfacet
facet normal 0.0 -1.0 0.0
  outer loop
    vertex 2.2086989100303525 53.43686145167596 50.598098
    vertex 100.90344327640251 53.43686145167596 70.39090199999998
    vertex 23.66545827640251 53.43686145167596 70.39090199999998
  endloop
endfacet
facet normal -0.10280255406767656 -0.0 0.9947017818809629
  outer loop
    vertex 26.656861022441227 -1.3168686379302208e-15 77.68295218980701
    vertex 26.365684872976967 57.99999999999999 77.65285909819526
    vertex 26.365684872976967 -1.3154055084526105e-15 77.65285909819526
  endloop
endfacet
facet normal -0.10280255406767656 -0.0 0.9947017818809629
  outer loop
    vertex 26.365684872976967 57.99999999999999 77.65285909819526
    vertex 26.656861022441227 -1.3168686379302208e-15 77.68295218980701
    vertex 26.656861022441227 57.99999999999999 77.68295218980701
  endloop
endfacet
facet normal 0.1025632409849878 -0.0 0.9947264858234427
  outer loop
    vertex 98.36059074508604 -1.3151402421883485e-15 77.64740320238145
    vertex 98.02905675367877 57.999999999999986 77.68158667003816
    vertex 98.02905675367877 -1.316802246206438e-15 77.68158667003816
  endloop
endfacet
facet normal 0.1025632409849878 -0.0 0.9947264858234427
  outer loop
    vertex 98.02905675367877 57.999999999999986 77.68158667003816
    vertex 98.36059074508604 -1.3151402421883485e-15 77.64740320238145
    vertex 98.36059074508604 57.999999999999986 77.64740320238145
  endloop
endfacet
facet normal 4.445526886140679e-17 1.0 3.726509292142435e-17
  outer loop
    vertex 0.0 57.99999999999999 50.598098
    vertex 125.0 57.99999999999999 0.0
    vertex 0.0 57.99999999999999 0.0
  endloop
endfacet
facet normal 4.445526886140679e-17 1.0 3.726509292142435e-17
  outer loop
    vertex 125.0 57.99999999999999 0.0
    vertex 0.0 57.99999999999999 50.598098
    vertex 125.0 57.99999999999999 50.598098
  endloop
endfacet
facet normal 4.445526886140679e-17 1.0 3.726509292142435e-17
  outer loop
    vertex 125.0 57.99999999999999 50.598098
    vertex 0.0 57.99999999999999 50.598098
    vertex 24.026323453296246 57.99999999999999 76.53357239165106
  endloop
endfacet
facet normal 4.445526886140679e-17 1.0 3.726509292142435e-17
  outer loop
    vertex 125.0 57.99999999999999 50.598098
    vertex 24.026323453296246 57.99999999999999 76.53357239165106
    vertex 101.02565198395136 57.999999999999986 76.37569549684886
  endloop
endfacet
facet normal 4.445526886140679e-17 1.0 3.726509292142435e-17
  outer loop
    vertex 101.02565198395136 57.999999999999986 76.37569549684886
    vertex 24.026323453296246 57.99999999999999 76.53357239165106
    vertex 100.77490732965866 57.999999999999986 76.59526419968034
  endloop
endfacet
facet normal 4.445526886140679e-17 1.0 3.726509292142435e-17
  outer loop
    vertex 100.77490732965866 57.999999999999986 76.59526419968034
    vertex 24.026323453296246 57.99999999999999 76.53357239165106
    vertex 24.2462251903562 57.99999999999999 76.7267882559521
  endloop
endfacet
facet normal 4.445526886140679e-17 1.0 3.726509292142435e-17
  outer loop
    vertex 100.77490732965866 57.999999999999986 76.59526419968034
    vertex 24.2462251903562 57.99999999999999 76.7267882559521
    vertex 100.50972284648414 57.999999999999986 76.7971564650174
  endloop
endfacet
facet normal 4.445526886140679e-17 1.0 3.726509292142435e-17
  outer loop
    vertex 100.50972284648414 57.999999999999986 76.7971564650174
    vertex 24.2462251903562 57.99999999999999 76.7267882559521
    vertex 24.478863929676496 57.99999999999999 76.90446313078547
  endloop
endfacet
facet normal 4.445526886140679e-17 1.0 3.726509292142435e-17
  outer loop
    vertex 100.50972284648414 57.999999999999986 76.7971564650174
    vertex 24.478863929676496 57.99999999999999 76.90446313078547
    vertex 100.23134221250358 57.999999999999986 76.98042544641919
  endloop
endfacet
facet normal 4.445526886140679e-17 1.0 3.726509292142435e-17
  outer loop
    vertex 100.23134221250358 57.999999999999986 76.98042544641919
    vertex 24.478863929676496 57.99999999999999 76.90446313078547
    vertex 24.72314351462264 57.99999999999999 77.06575984047952
  endloop
endfacet
facet normal 4.445526886140679e-17 1.0 3.726509292142435e-17
  outer loop
    vertex 100.23134221250358 57.999999999999986 76.98042544641919
    vertex 24.72314351462264 57.99999999999999 77.06575984047952
    vertex 99.94107099389134 57.999999999999986 77.14421163803752
  endloop
endfacet
facet normal 4.445526886140679e-17 1.0 3.726509292142435e-17
  outer loop
    vertex 99.94107099389134 57.999999999999986 77.14421163803752
    vertex 24.72314351462264 57.99999999999999 77.06575984047952
    vertex 24.977912938752223 57.99999999999999 77.2099183806645
  endloop
endfacet
facet normal 4.445526886140679e-17 1.0 3.726509292142435e-17
  outer loop
    vertex 99.94107099389134 57.999999999999986 77.14421163803752
    vertex 24.977912938752223 57.99999999999999 77.2099183806645
    vertex 99.64027052199795 57.999999999999986 77.28774690557889
  endloop
endfacet
facet normal 4.445526886140679e-17 1.0 3.726509292142435e-17
  outer loop
    vertex 99.64027052199795 57.999999999999986 77.28774690557889
    vertex 24.977912938752223 57.99999999999999 77.2099183806645
    vertex 25.241971769173684 57.99999999999999 77.33625949929196
  endloop
endfacet
facet normal 4.445526886140679e-17 1.0 3.726509292142435e-17
  outer loop
    vertex 99.64027052199795 57.999999999999986 77.28774690557889
    vertex 25.241971769173684 57.99999999999999 77.33625949929196
    vertex 99.33035150889671 57.999999999999986 77.41035808874673
  endloop
endfacet
facet normal 4.445526886140679e-17 1.0 3.726509292142435e-17
  outer loop
    vertex 99.33035150889671 57.999999999999986 77.41035808874673
    vertex 25.241971769173684 57.99999999999999 77.33625949929196
    vertex 25.51407580279467 57.99999999999999 77.4441878971619
  endloop
endfacet
facet normal 4.445526886140679e-17 1.0 3.726509292142435e-17
  outer loop
    vertex 99.33035150889671 57.999999999999986 77.41035808874673
    vertex 25.51407580279467 57.99999999999999 77.4441878971619
    vertex 99.01276743134179 57.999999999999986 77.51147015826888
  endloop
endfacet
facet normal 4.445526886140679e-17 1.0 3.726509292142435e-17
  outer loop
    vertex 99.01276743134179 57.999999999999986 77.51147015826888
    vertex 25.51407580279467 57.99999999999999 77.4441878971619
    vertex 25.792942928808532 57.99999999999999 77.53319503287784
  endloop
endfacet
facet normal 4.445526886140679e-17 1.0 3.726509292142435e-17
  outer loop
    vertex 99.01276743134179 57.999999999999986 77.51147015826888
    vertex 25.792942928808532 57.99999999999999 77.53319503287784
    vertex 98.6890077141658 57.999999999999986 77.59060891270431
  endloop
endfacet
facet normal 4.445526886140679e-17 1.0 3.726509292142435e-17
  outer loop
    vertex 98.6890077141658 57.999999999999986 77.59060891270431
    vertex 25.792942928808532 57.99999999999999 77.53319503287784
    vertex 26.07725916979595 57.99999999999999 77.60286151901265
  endloop
endfacet
facet normal 4.445526886140679e-17 1.0 3.726509292142435e-17
  outer loop
    vertex 98.6890077141658 57.999999999999986 77.59060891270431
    vertex 26.07725916979595 57.99999999999999 77.60286151901265
    vertex 98.36059074508604 57.999999999999986 77.64740320238145
  endloop
endfacet
facet normal 4.445526886140679e-17 1.0 3.726509292142435e-17
  outer loop
    vertex 98.36059074508604 57.999999999999986 77.64740320238145
    vertex 26.07725916979595 57.99999999999999 77.60286151901265
    vertex 26.365684872976967 57.99999999999999 77.65285909819526
  endloop
endfacet
facet normal 4.445526886140679e-17 1.0 3.726509292142435e-17
  outer loop
    vertex 98.36059074508604 57.999999999999986 77.64740320238145
    vertex 26.365684872976967 57.99999999999999 77.65285909819526
    vertex 98.02905675367877 57.999999999999986 77.68158667003816
  endloop
endfacet
facet normal 4.445526886140679e-17 1.0 3.726509292142435e-17
  outer loop
    vertex 98.02905675367877 57.999999999999986 77.68158667003816
    vertex 26.365684872976967 57.99999999999999 77.65285909819526
    vertex 26.656861022441227 57.99999999999999 77.68295218980701
  endloop
endfacet
facet normal -0.7357268371218729 -1.8682466798101025e-06 -0.6772783926386216
  outer loop
    vertex 100.8977206728493 15.355744128763329 70.39705615097023
    vertex 119.12381624393244 4.063250451675957 50.598098
    vertex 100.90344327640251 4.063250451675957 70.39090199999998
  endloop
endfacet
facet normal -0.7357268371218729 -1.8682466798101025e-06 -0.6772783926386216
  outer loop
    vertex 119.12381624393244 4.063250451675957 50.598098
    vertex 100.8977206728493 15.355744128763329 70.39705615097023
    vertex 119.12381624393244 15.357137829993667 50.598098
  endloop
endfacet
facet normal -0.7357264957870858 9.987315526167204e-07 -0.6772787634319105
  outer loop
    vertex 100.90344327640251 53.43686145167596 70.39090199999998
    vertex 119.1238323427953 42.35574531852728 50.598115342039236
    vertex 100.8972421213274 42.35574413448884 70.3975707905544
  endloop
endfacet
facet normal -0.7357264957870858 9.987315526167204e-07 -0.6772787634319105
  outer loop
    vertex 119.1238323427953 42.35574531852728 50.598115342039236
    vertex 100.90344327640251 53.43686145167596 70.39090199999998
    vertex 119.12381624393244 53.43686145167596 50.598098
  endloop
endfacet
facet normal -5.569253715886031e-05 0.9999999982663985 1.9119221713494604e-05
  outer loop
    vertex 100.8977206728493 15.355744128763329 70.39705615097023
    vertex 122.29043558803109 15.357258356077685 53.51315869252488
    vertex 119.12381624393244 15.357137829993667 50.598098
  endloop
endfacet
facet normal -5.569253715886031e-05 0.9999999982663985 1.9119221713494604e-05
  outer loop
    vertex 122.29043558803109 15.357258356077685 53.51315869252488
    vertex 100.8977206728493 15.355744128763329 70.39705615097023
    vertex 103.96493279442224 15.355861079920878 73.22060660642444
  endloop
endfacet
facet normal 9.069966515296975e-05 -0.9999999936994259 6.614165820131999e-05
  outer loop
    vertex 122.28932223400322 42.356562097419385 53.512136355538814
    vertex 100.8972421213274 42.35574413448884 70.3975707905544
    vertex 119.1238323427953 42.35574531852728 50.598115342039236
  endloop
endfacet
facet normal 9.069966515296975e-05 -0.9999999936994259 6.614165820131999e-05
  outer loop
    vertex 100.8972421213274 42.35574413448884 70.3975707905544
    vertex 122.28932223400322 42.356562097419385 53.512136355538814
    vertex 103.96334217740166 42.35586106161454 73.22009752384112
  endloop
endfacet
facet normal 0.6825004218686936 3.909308929986388e-05 -0.7308851979762524
  outer loop
    vertex 103.94289406966732 42.35597743184157 73.24208764461687
    vertex 100.8977206728493 15.355744128763329 70.39705615097023
    vertex 100.8972421213274 42.35574413448884 70.3975707905544
  endloop
endfacet
facet normal 0.6825004218686936 3.909308929986388e-05 -0.7308851979762524
  outer loop
    vertex 100.8977206728493 15.355744128763329 70.39705615097023
    vertex 103.94289406966732 42.35597743184157 73.24208764461687
    vertex 103.94495807087971 15.355977510732332 73.24208764461687
  endloop
endfacet
facet normal 0.0026677790281791004 0.9999921213580518 -0.002939417779133287
  outer loop
    vertex 103.94495807087971 15.355977510732332 73.24208764461687
    vertex 103.96493279442224 15.355861079920878 73.22060660642444
    vertex 100.8977206728493 15.355744128763329 70.39705615097023
  endloop
endfacet
facet normal -0.677279340997112 -6.939274270057862e-08 0.7357259641051912
  outer loop
    vertex 122.29043558803109 15.357258356077685 53.51315869252488
    vertex 119.1238323427953 42.35574531852728 50.598115342039236
    vertex 119.12381624393244 15.357137829993667 50.598098
  endloop
endfacet
facet normal -0.677279340997112 -6.939274270057862e-08 0.7357259641051912
  outer loop
    vertex 119.1238323427953 42.35574531852728 50.598115342039236
    vertex 122.29043558803109 15.357258356077685 53.51315869252488
    vertex 122.28932223400322 42.356562097419385 53.512136355538814
  endloop
endfacet
facet normal 0.7265294473951094 4.419093063382996e-05 0.6871353288217095
  outer loop
    vertex 122.33099537260301 15.357383021969095 53.46954025273593
    vertex 122.28932223400322 42.356562097419385 53.512136355538814
    vertex 122.29043558803109 15.357258356077685 53.51315869252488
  endloop
endfacet
facet normal 0.7265294473951094 4.419093063382996e-05 0.6871353288217095
  outer loop
    vertex 122.28932223400322 42.356562097419385 53.512136355538814
    vertex 122.33099537260301 15.357383021969095 53.46954025273593
    vertex 122.32893137139062 42.357382943078335 53.46954025273593
  endloop
endfacet
facet normal -0.6796482841568773 2.283968106278075e-05 -0.7335381444212439
  outer loop
    vertex 20.59882467752671 42.3589427075797 72.83621661052291
    vertex 23.45748207583057 15.358750510659002 70.18673138664155
    vertex 20.597009954908522 15.358942768565234 72.83621661052291
  endloop
endfacet
facet normal -0.6796482841568773 2.283968106278075e-05 -0.7335381444212439
  outer loop
    vertex 23.45748207583057 15.358750510659002 70.18673138664155
    vertex 20.59882467752671 42.3589427075797 72.83621661052291
    vertex 23.45748207583057 42.3594145716509 70.18673138664155
  endloop
endfacet
facet normal 0.6780315584237546 -9.591020449426367e-33 -0.7350327923170875
  outer loop
    vertex 2.2086989100303525 53.43686145167596 50.598098
    vertex 3.543578318140629 42.49756428391258 51.82945852539908
    vertex 2.2086989100303525 4.063250451675957 50.598098
  endloop
endfacet
facet normal 0.6780315584237546 -9.591020449426367e-33 -0.7350327923170875
  outer loop
    vertex 3.543578318140629 42.49756428391258 51.82945852539908
    vertex 2.2086989100303525 53.43686145167596 50.598098
    vertex 23.66545827640251 53.43686145167596 70.39090199999998
  endloop
endfacet
facet normal 0.6780315584237546 -9.591020449426367e-33 -0.7350327923170875
  outer loop
    vertex 3.543578318140629 42.49756428391258 51.82945852539908
    vertex 23.66545827640251 53.43686145167596 70.39090199999998
    vertex 23.45748207583057 42.3594145716509 70.18673138664155
  endloop
endfacet
facet normal 0.6780315584237546 -9.591020449426367e-33 -0.7350327923170875
  outer loop
    vertex 23.45748207583057 42.3594145716509 70.18673138664155
    vertex 23.66545827640251 53.43686145167596 70.39090199999998
    vertex 23.45748207583057 15.358750510659002 70.18673138664155
  endloop
endfacet
facet normal 0.6780315584237546 -9.591020449426367e-33 -0.7350327923170875
  outer loop
    vertex 2.2086989100303525 4.063250451675957 50.598098
    vertex 3.543578318140629 15.785873283912572 51.82945852539908
    vertex 23.66545827640251 4.063250451675957 70.39090199999998
  endloop
endfacet
facet normal 0.6780315584237546 -9.591020449426367e-33 -0.7350327923170875
  outer loop
    vertex 3.543578318140629 15.785873283912572 51.82945852539908
    vertex 2.2086989100303525 4.063250451675957 50.598098
    vertex 3.543578318140629 42.49756428391258 51.82945852539908
  endloop
endfacet
facet normal 0.6780315584237546 -9.591020449426367e-33 -0.7350327923170875
  outer loop
    vertex 23.66545827640251 4.063250451675957 70.39090199999998
    vertex 3.543578318140629 15.785873283912572 51.82945852539908
    vertex 23.45748207583057 15.358750510659002 70.18673138664155
  endloop
endfacet
facet normal 0.6780315584237546 -9.591020449426367e-33 -0.7350327923170875
  outer loop
    vertex 23.66545827640251 4.063250451675957 70.39090199999998
    vertex 23.45748207583057 15.358750510659002 70.18673138664155
    vertex 23.66545827640251 53.43686145167596 70.39090199999998
  endloop
endfacet
facet normal 0.010781995235538137 0.9998749566449284 0.01156804447794336
  outer loop
    vertex 20.597009954908522 15.358942768565234 72.83621661052291
    vertex 23.45748207583057 15.358750510659002 70.18673138664155
    vertex 3.543578318140629 15.785873283912572 51.82945852539908
  endloop
endfacet
facet normal -0.1721135647830726 0.9720819642412364 0.15947907578915518
  outer loop
    vertex 20.597009954908522 15.358942768565234 72.83621661052291
    vertex 3.543578318140629 15.785873283912572 51.82945852539908
    vertex 2.2496381542956385 15.36017593118249 53.027785413444605
  endloop
endfacet
facet normal 0.6794795095813395 -2.5983671600868e-18 0.7336944841411189
  outer loop
    vertex 3.543578318140629 42.49756428391258 51.82945852539908
    vertex 2.2496381542956385 15.36017593118249 53.027785413444605
    vertex 3.543578318140629 15.785873283912572 51.82945852539908
  endloop
endfacet
facet normal 0.6799953254889545 -4.570381111904754e-05 0.7332164450040197
  outer loop
    vertex 3.543578318140629 42.49756428391258 51.82945852539908
    vertex 2.251452876913827 42.36017587019696 53.027785413444605
    vertex 2.2496381542956385 15.36017593118249 53.027785413444605
  endloop
endfacet
facet normal 5.7771158438836235e-05 -0.9999999916305463 -0.00011576441906784622
  outer loop
    vertex 20.59882467752671 42.3589427075797 72.83621661052291
    vertex 2.251452876913827 42.36017587019696 53.027785413444605
    vertex 23.45748207583057 42.3594145716509 70.18673138664155
  endloop
endfacet
facet normal 0.04937138659584955 -0.9969122873250919 -0.06106027813445481
  outer loop
    vertex 23.45748207583057 42.3594145716509 70.18673138664155
    vertex 2.251452876913827 42.36017587019696 53.027785413444605
    vertex 3.543578318140629 42.49756428391258 51.82945852539908
  endloop
endfacet
endsolid CaseDesign3
